<svg xmlns="http://www.w3.org/2000/svg" xmlns:xlink="http://www.w3.org/1999/xlink" width="500" zoomAndPan="magnify" viewBox="0 0 375 374.999991" height="500" preserveAspectRatio="xMidYMid meet" version="1.0"><defs><g/></defs><g fill="#39b54a" fill-opacity="1"><g transform="translate(-16.24672, 341.02358)"><g><path d="M 48.625 -134.34375 L 17.0625 -134.34375 L 17.0625 -187.21875 L 48.625 -187.21875 L 48.625 -252.046875 C 48.625 -277.066406 55.800781 -297.179688 70.15625 -312.390625 C 84.507812 -327.597656 104.765625 -335.203125 130.921875 -335.203125 C 139.453125 -335.203125 148.550781 -333.921875 158.21875 -331.359375 C 167.882812 -328.804688 176.269531 -324.972656 183.375 -319.859375 L 158.21875 -276.78125 C 153.101562 -283.03125 146.140625 -286.15625 137.328125 -286.15625 C 128.515625 -286.15625 121.476562 -283.171875 116.21875 -277.203125 C 110.957031 -271.234375 108.328125 -262.28125 108.328125 -250.34375 L 108.328125 -187.21875 L 164.609375 -187.21875 L 164.609375 -134.34375 L 108.328125 -134.34375 L 108.328125 0 L 48.625 0 Z M 48.625 -134.34375 "/></g></g></g><g fill="#39b54a" fill-opacity="1"><g transform="translate(86.48546, 339.453856)"><g><path d="M 287.4375 -186.359375 L 203.421875 11.09375 L 143.71875 -112.59375 L 89.125 11.09375 L 4.265625 -186.359375 L 62.265625 -186.359375 L 96.8125 -107.46875 L 122.828125 -165.046875 L 113.015625 -186.359375 L 163.765625 -186.359375 L 198.734375 -104.0625 L 229.4375 -186.359375 Z M 287.4375 -186.359375 "/></g></g></g></svg>