<svg xmlns="http://www.w3.org/2000/svg" xmlns:xlink="http://www.w3.org/1999/xlink" width="500" zoomAndPan="magnify" viewBox="0 0 375 374.999991" height="500" preserveAspectRatio="xMidYMid meet" version="1.0"><defs><g/></defs><g fill="#39b54a" fill-opacity="1"><g transform="translate(8.053963, 186.024778)"><g><path d="M 10.953125 -30.25 L 3.84375 -30.25 L 3.84375 -42.15625 L 10.953125 -42.15625 L 10.953125 -56.75 C 10.953125 -62.375 12.566406 -66.898438 15.796875 -70.328125 C 19.023438 -73.753906 23.585938 -75.46875 29.484375 -75.46875 C 31.398438 -75.46875 33.445312 -75.175781 35.625 -74.59375 C 37.800781 -74.019531 39.6875 -73.160156 41.28125 -72.015625 L 35.625 -62.3125 C 34.46875 -63.71875 32.898438 -64.421875 30.921875 -64.421875 C 28.929688 -64.421875 27.34375 -63.75 26.15625 -62.40625 C 24.976562 -61.0625 24.390625 -59.046875 24.390625 -56.359375 L 24.390625 -42.15625 L 37.0625 -42.15625 L 37.0625 -30.25 L 24.390625 -30.25 L 24.390625 0 L 10.953125 0 Z M 10.953125 -30.25 "/></g></g></g><g fill="#39b54a" fill-opacity="1"><g transform="translate(42.236817, 186.024778)"><g><path d="M 52.046875 -41.953125 L 52.046875 0 L 38.59375 0 L 38.59375 -5.1875 C 34.5625 -0.957031 29.890625 1.15625 24.578125 1.15625 C 18.367188 1.15625 13.328125 -0.695312 9.453125 -4.40625 C 5.585938 -8.125 3.65625 -13.632812 3.65625 -20.9375 C 3.65625 -25.539062 4.597656 -29.585938 6.484375 -33.078125 C 8.367188 -36.566406 10.878906 -39.269531 14.015625 -41.1875 C 17.148438 -43.113281 20.507812 -44.078125 24.09375 -44.078125 C 27.8125 -44.078125 30.757812 -43.515625 32.9375 -42.390625 C 35.113281 -41.265625 37.03125 -39.679688 38.6875 -37.640625 L 39.5625 -41.953125 Z M 28.421875 -9.796875 C 33.097656 -9.796875 36.488281 -11.90625 38.59375 -16.125 L 38.59375 -26.40625 C 37.832031 -28.457031 36.503906 -30.085938 34.609375 -31.296875 C 32.722656 -32.515625 30.5 -33.125 27.9375 -33.125 C 25 -33.125 22.488281 -32.035156 20.40625 -29.859375 C 18.320312 -27.679688 17.28125 -24.929688 17.28125 -21.609375 C 17.28125 -19.429688 17.789062 -17.425781 18.8125 -15.59375 C 19.84375 -13.769531 21.203125 -12.347656 22.890625 -11.328125 C 24.585938 -10.304688 26.429688 -9.796875 28.421875 -9.796875 Z M 28.421875 -9.796875 "/></g></g></g><g fill="#39b54a" fill-opacity="1"><g transform="translate(93.607631, 186.024778)"><g><path d="M 20.0625 -32.359375 C 21.21875 -34.597656 22.800781 -36.613281 24.8125 -38.40625 C 26.832031 -40.195312 28.898438 -41.585938 31.015625 -42.578125 C 33.128906 -43.578125 34.789062 -44.078125 36 -44.078125 L 35.328125 -30.625 C 34.941406 -30.6875 34.398438 -30.71875 33.703125 -30.71875 C 31.015625 -30.71875 28.644531 -30.015625 26.59375 -28.609375 C 24.550781 -27.203125 22.984375 -25.394531 21.890625 -23.1875 C 20.804688 -20.976562 20.265625 -18.722656 20.265625 -16.421875 L 20.265625 0 L 6.90625 0 L 6.90625 -41.953125 L 19.015625 -41.953125 Z M 20.0625 -32.359375 "/></g></g></g><g fill="#39b54a" fill-opacity="1"><g transform="translate(125.389933, 186.024778)"><g><path d="M 62.21875 -44.078125 C 66.3125 -44.078125 69.585938 -42.921875 72.046875 -40.609375 C 74.515625 -38.304688 75.816406 -35.269531 75.953125 -31.5 L 75.953125 0 L 62.609375 0 L 62.609375 -25.921875 C 62.472656 -28.035156 62.117188 -29.617188 61.546875 -30.671875 C 60.972656 -31.734375 59.851562 -32.328125 58.1875 -32.453125 C 55.050781 -32.453125 52.601562 -30.929688 50.84375 -27.890625 C 49.082031 -24.847656 48.203125 -21.28125 48.203125 -17.1875 L 48.203125 0 L 34.75 0 L 34.75 -25.921875 C 34.625 -28.035156 34.238281 -29.617188 33.59375 -30.671875 C 32.957031 -31.734375 31.773438 -32.328125 30.046875 -32.453125 C 27.046875 -32.453125 24.679688 -30.929688 22.953125 -27.890625 C 21.222656 -24.847656 20.359375 -21.34375 20.359375 -17.375 L 20.359375 0 L 6.90625 0 L 6.90625 -41.953125 L 19.109375 -41.953125 L 20.0625 -35.328125 C 23.457031 -41.160156 28.515625 -44.078125 35.234375 -44.078125 C 38.628906 -44.078125 41.429688 -43.382812 43.640625 -42 C 45.847656 -40.625 47.367188 -38.59375 48.203125 -35.90625 C 49.992188 -38.40625 52.117188 -40.390625 54.578125 -41.859375 C 57.046875 -43.335938 59.59375 -44.078125 62.21875 -44.078125 Z M 62.21875 -44.078125 "/></g></g></g><g fill="#39b54a" fill-opacity="1"><g transform="translate(200.670264, 186.024778)"><g><path d="M 64.71875 -41.953125 L 45.796875 2.5 L 32.359375 -25.34375 L 20.0625 2.5 L 0.953125 -41.953125 L 14.015625 -41.953125 L 21.796875 -24.203125 L 27.65625 -37.15625 L 25.4375 -41.953125 L 36.875 -41.953125 L 44.75 -23.421875 L 51.65625 -41.953125 Z M 64.71875 -41.953125 "/></g></g></g><g fill="#39b54a" fill-opacity="1"><g transform="translate(258.762635, 186.024778)"><g><path d="M 20.359375 -41.953125 L 20.359375 0 L 6.90625 0 L 6.90625 -41.953125 Z M 6.625 -56.84375 C 6.625 -58.757812 7.375 -60.375 8.875 -61.6875 C 10.382812 -63 12.097656 -63.65625 14.015625 -63.65625 C 15.878906 -63.65625 17.546875 -63 19.015625 -61.6875 C 20.484375 -60.375 21.21875 -58.757812 21.21875 -56.84375 C 21.21875 -54.914062 20.484375 -53.3125 19.015625 -52.03125 C 17.546875 -50.757812 15.878906 -50.125 14.015625 -50.125 C 12.097656 -50.125 10.382812 -50.757812 8.875 -52.03125 C 7.375 -53.3125 6.625 -54.914062 6.625 -56.84375 Z M 6.625 -56.84375 "/></g></g></g><g fill="#39b54a" fill-opacity="1"><g transform="translate(278.446154, 186.024778)"><g><path d="M 20.546875 0.859375 C 17.085938 0.859375 13.851562 0.253906 10.84375 -0.953125 C 7.84375 -2.171875 5.347656 -3.867188 3.359375 -6.046875 L 8.921875 -13.4375 C 12.640625 -9.976562 16.128906 -8.25 19.390625 -8.25 C 21.117188 -8.25 22.507812 -8.519531 23.5625 -9.0625 C 24.625 -9.613281 25.15625 -10.429688 25.15625 -11.515625 C 25.15625 -12.796875 24.546875 -13.769531 23.328125 -14.4375 C 22.109375 -15.113281 20.75 -15.675781 19.25 -16.125 C 17.75 -16.570312 16.742188 -16.863281 16.234375 -17 C 12.578125 -18.144531 9.851562 -19.851562 8.0625 -22.125 C 6.269531 -24.40625 5.375 -27.015625 5.375 -29.953125 C 5.375 -32.191406 5.960938 -34.382812 7.140625 -36.53125 C 8.328125 -38.675781 10.171875 -40.4375 12.671875 -41.8125 C 15.171875 -43.1875 18.273438 -43.875 21.984375 -43.875 C 25.441406 -43.875 28.382812 -43.519531 30.8125 -42.8125 C 33.25 -42.113281 35.585938 -40.960938 37.828125 -39.359375 L 32.734375 -31.5 C 31.460938 -32.519531 30.039062 -33.363281 28.46875 -34.03125 C 26.894531 -34.707031 25.472656 -35.046875 24.203125 -35.046875 C 22.660156 -35.046875 21.410156 -34.722656 20.453125 -34.078125 C 19.492188 -33.441406 19.015625 -32.675781 19.015625 -31.78125 C 18.953125 -30.4375 19.507812 -29.425781 20.6875 -28.75 C 21.875 -28.082031 23.71875 -27.394531 26.21875 -26.6875 C 26.59375 -26.5625 26.988281 -26.429688 27.40625 -26.296875 C 27.820312 -26.171875 28.253906 -26.046875 28.703125 -25.921875 C 35.296875 -23.742188 38.59375 -19.773438 38.59375 -14.015625 C 38.59375 -11.328125 37.921875 -8.863281 36.578125 -6.625 C 35.234375 -4.382812 33.203125 -2.578125 30.484375 -1.203125 C 27.765625 0.171875 24.453125 0.859375 20.546875 0.859375 Z M 20.546875 0.859375 "/></g></g></g><g fill="#39b54a" fill-opacity="1"><g transform="translate(313.781272, 186.024778)"><g><path d="M 27.84375 -10.28125 C 30.53125 -10.28125 33.316406 -11.207031 36.203125 -13.0625 L 42.15625 -3.078125 C 39.84375 -1.796875 37.40625 -0.769531 34.84375 0 C 32.289062 0.769531 29.863281 1.15625 27.5625 1.15625 C 22.5625 1.15625 18.253906 0.210938 14.640625 -1.671875 C 11.023438 -3.566406 8.289062 -6.222656 6.4375 -9.640625 C 4.582031 -13.066406 3.65625 -16.988281 3.65625 -21.40625 C 3.65625 -25.507812 4.722656 -29.285156 6.859375 -32.734375 C 9.003906 -36.191406 11.929688 -38.925781 15.640625 -40.9375 C 19.359375 -42.957031 23.425781 -43.96875 27.84375 -43.96875 C 33.863281 -43.96875 38.804688 -42.207031 42.671875 -38.6875 C 46.546875 -35.164062 49.0625 -30.144531 50.21875 -23.625 L 19.484375 -13.828125 C 21.535156 -11.460938 24.320312 -10.28125 27.84375 -10.28125 Z M 26.78125 -33.515625 C 23.78125 -33.515625 21.382812 -32.488281 19.59375 -30.4375 C 17.800781 -28.382812 16.90625 -25.628906 16.90625 -22.171875 L 16.90625 -21.3125 L 35.328125 -27.5625 C 33.984375 -31.53125 31.132812 -33.515625 26.78125 -33.515625 Z M 26.78125 -33.515625 "/></g></g></g><g fill="#000000" fill-opacity="1"><g transform="translate(130.923526, 209.631753)"><g><path d="M 6.65625 -8.078125 C 7.320312 -8.078125 7.929688 -7.914062 8.484375 -7.59375 C 9.046875 -7.269531 9.488281 -6.800781 9.8125 -6.1875 C 10.144531 -5.582031 10.3125 -4.859375 10.3125 -4.015625 C 10.3125 -3.171875 10.128906 -2.425781 9.765625 -1.78125 C 9.410156 -1.144531 8.925781 -0.648438 8.3125 -0.296875 C 7.695312 0.046875 7.035156 0.21875 6.328125 0.21875 C 5.273438 0.21875 4.410156 -0.113281 3.734375 -0.78125 L 3.734375 0 L 1.265625 0 L 1.265625 -13.890625 L 3.71875 -13.890625 L 3.71875 -7.171875 C 4.039062 -7.441406 4.453125 -7.660156 4.953125 -7.828125 C 5.460938 -7.992188 6.03125 -8.078125 6.65625 -8.078125 Z M 5.78125 -1.859375 C 6.144531 -1.859375 6.476562 -1.953125 6.78125 -2.140625 C 7.09375 -2.335938 7.34375 -2.601562 7.53125 -2.9375 C 7.71875 -3.269531 7.8125 -3.632812 7.8125 -4.03125 C 7.8125 -4.644531 7.613281 -5.148438 7.21875 -5.546875 C 6.820312 -5.941406 6.34375 -6.140625 5.78125 -6.140625 C 5.289062 -6.140625 4.863281 -6.023438 4.5 -5.796875 C 4.144531 -5.578125 3.890625 -5.28125 3.734375 -4.90625 L 3.734375 -3.03125 C 4.148438 -2.25 4.832031 -1.859375 5.78125 -1.859375 Z M 5.78125 -1.859375 "/></g></g></g><g fill="#000000" fill-opacity="1"><g transform="translate(141.914953, 209.631753)"><g><path d="M 9.234375 -7.6875 L 4.265625 3.703125 L 1.890625 3.703125 L 3.734375 -0.40625 L 0.171875 -7.6875 L 2.9375 -7.6875 L 4.96875 -3.15625 L 7.015625 -7.6875 Z M 9.234375 -7.6875 "/></g></g></g><g fill="#39b54a" fill-opacity="1"><g transform="translate(151.322383, 211.035246)"><g><path d="M 16.875 0.765625 L 12.6875 -9.640625 L 7.828125 0.8125 L 0.765625 -17.4375 L 4.8125 -17.4375 L 8.28125 -7.28125 L 10.953125 -13.984375 L 9.5625 -17.4375 L 13 -17.4375 L 16.9375 -7.6875 L 19.921875 -17.4375 L 23.640625 -17.4375 Z M 16.875 0.765625 "/></g></g></g><g fill="#39b54a" fill-opacity="1"><g transform="translate(175.722532, 211.035246)"><g><path d="M 8.96875 -10.921875 C 9.957031 -10.921875 10.78125 -10.625 11.4375 -10.03125 C 12.101562 -9.445312 12.441406 -8.703125 12.453125 -7.796875 L 12.453125 0 L 9.109375 0 L 9.109375 -6.5625 C 9.066406 -7.582031 8.5625 -8.09375 7.59375 -8.09375 C 6.820312 -8.09375 6.207031 -7.734375 5.75 -7.015625 C 5.289062 -6.296875 5.0625 -5.375 5.0625 -4.25 L 5.0625 0 L 1.71875 0 L 1.71875 -18.828125 L 4.984375 -18.828125 L 4.984375 -8.78125 C 5.367188 -9.445312 5.898438 -9.96875 6.578125 -10.34375 C 7.253906 -10.726562 8.050781 -10.921875 8.96875 -10.921875 Z M 8.96875 -10.921875 "/></g></g></g><g fill="#39b54a" fill-opacity="1"><g transform="translate(189.890358, 211.035246)"><g><path d="M 5.0625 -10.421875 L 5.0625 0 L 1.71875 0 L 1.71875 -10.421875 Z M 1.65625 -14.125 C 1.65625 -14.59375 1.835938 -14.988281 2.203125 -15.3125 C 2.578125 -15.644531 3.003906 -15.8125 3.484375 -15.8125 C 3.953125 -15.8125 4.367188 -15.644531 4.734375 -15.3125 C 5.097656 -14.988281 5.28125 -14.59375 5.28125 -14.125 C 5.28125 -13.644531 5.097656 -13.242188 4.734375 -12.921875 C 4.367188 -12.609375 3.953125 -12.453125 3.484375 -12.453125 C 3.003906 -12.453125 2.578125 -12.609375 2.203125 -12.921875 C 1.835938 -13.242188 1.65625 -13.644531 1.65625 -14.125 Z M 1.65625 -14.125 "/></g></g></g><g fill="#39b54a" fill-opacity="1"><g transform="translate(196.6642, 211.035246)"><g><path d="M 6.03125 -15 L 6.03125 -10.46875 L 8.5625 -10.46875 L 8.5625 -7.875 L 6.03125 -7.875 L 6.03125 0 L 2.703125 0 L 2.703125 -7.875 L 1.078125 -7.875 L 1.078125 -10.46875 L 2.703125 -10.46875 L 2.703125 -15 Z M 6.03125 -15 "/></g></g></g><g fill="#39b54a" fill-opacity="1"><g transform="translate(206.061716, 211.035246)"><g><path d="M 6.921875 -2.546875 C 7.585938 -2.546875 8.28125 -2.78125 9 -3.25 L 10.46875 -0.765625 C 9.894531 -0.441406 9.289062 -0.1875 8.65625 0 C 8.019531 0.1875 7.414062 0.28125 6.84375 0.28125 C 5.601562 0.28125 4.535156 0.046875 3.640625 -0.421875 C 2.742188 -0.890625 2.0625 -1.546875 1.59375 -2.390625 C 1.132812 -3.242188 0.90625 -4.222656 0.90625 -5.328125 C 0.90625 -6.335938 1.171875 -7.269531 1.703125 -8.125 C 2.234375 -8.988281 2.957031 -9.671875 3.875 -10.171875 C 4.800781 -10.671875 5.816406 -10.921875 6.921875 -10.921875 C 8.410156 -10.921875 9.632812 -10.484375 10.59375 -9.609375 C 11.5625 -8.734375 12.191406 -7.488281 12.484375 -5.875 L 4.84375 -3.4375 C 5.351562 -2.84375 6.046875 -2.546875 6.921875 -2.546875 Z M 6.65625 -8.328125 C 5.90625 -8.328125 5.304688 -8.070312 4.859375 -7.5625 C 4.421875 -7.050781 4.203125 -6.367188 4.203125 -5.515625 L 4.203125 -5.296875 L 8.78125 -6.84375 C 8.445312 -7.832031 7.738281 -8.328125 6.65625 -8.328125 Z M 6.65625 -8.328125 "/></g></g></g><g fill="#39b54a" fill-opacity="1"><g transform="translate(219.251629, 211.035246)"><g><path d="M 11.734375 0 L 8.046875 -5.578125 L 5.71875 -5.578125 L 5.71875 0 L 2.265625 0 L 2.265625 -17.5625 L 7.59375 -17.5625 C 9.769531 -17.5625 11.457031 -17.03125 12.65625 -15.96875 C 13.851562 -14.914062 14.453125 -13.472656 14.453125 -11.640625 C 14.453125 -10.554688 14.222656 -9.539062 13.765625 -8.59375 C 13.316406 -7.65625 12.625 -6.914062 11.6875 -6.375 L 15.765625 0 Z M 5.71875 -8.921875 L 8.1875 -8.921875 C 9.125 -8.921875 9.804688 -9.191406 10.234375 -9.734375 C 10.660156 -10.285156 10.875 -10.882812 10.875 -11.53125 C 10.875 -12.164062 10.691406 -12.769531 10.328125 -13.34375 C 9.960938 -13.925781 9.253906 -14.21875 8.203125 -14.21875 L 5.71875 -14.21875 Z M 5.71875 -8.921875 "/></g></g></g><g fill="#39b54a" fill-opacity="1"><g transform="translate(235.613804, 211.035246)"><g><path d="M 12.9375 -10.421875 L 12.9375 0 L 9.59375 0 L 9.59375 -1.28125 C 8.59375 -0.238281 7.429688 0.28125 6.109375 0.28125 C 4.566406 0.28125 3.3125 -0.175781 2.34375 -1.09375 C 1.382812 -2.019531 0.90625 -3.390625 0.90625 -5.203125 C 0.90625 -6.347656 1.140625 -7.351562 1.609375 -8.21875 C 2.078125 -9.082031 2.703125 -9.753906 3.484375 -10.234375 C 4.265625 -10.710938 5.097656 -10.953125 5.984375 -10.953125 C 6.910156 -10.953125 7.644531 -10.8125 8.1875 -10.53125 C 8.726562 -10.25 9.203125 -9.859375 9.609375 -9.359375 L 9.828125 -10.421875 Z M 7.0625 -2.4375 C 8.21875 -2.4375 9.0625 -2.960938 9.59375 -4.015625 L 9.59375 -6.5625 C 9.40625 -7.070312 9.070312 -7.476562 8.59375 -7.78125 C 8.125 -8.082031 7.570312 -8.234375 6.9375 -8.234375 C 6.207031 -8.234375 5.582031 -7.960938 5.0625 -7.421875 C 4.550781 -6.878906 4.296875 -6.195312 4.296875 -5.375 C 4.296875 -4.832031 4.421875 -4.332031 4.671875 -3.875 C 4.929688 -3.425781 5.269531 -3.070312 5.6875 -2.8125 C 6.113281 -2.5625 6.570312 -2.4375 7.0625 -2.4375 Z M 7.0625 -2.4375 "/></g></g></g><g fill="#39b54a" fill-opacity="1"><g transform="translate(250.258661, 211.035246)"><g><path d="M 9.015625 -10.953125 C 9.921875 -10.953125 10.75 -10.734375 11.5 -10.296875 C 12.257812 -9.859375 12.863281 -9.222656 13.3125 -8.390625 C 13.757812 -7.566406 13.984375 -6.582031 13.984375 -5.4375 C 13.984375 -4.289062 13.734375 -3.285156 13.234375 -2.421875 C 12.742188 -1.554688 12.082031 -0.890625 11.25 -0.421875 C 10.425781 0.046875 9.53125 0.28125 8.5625 0.28125 C 7.144531 0.28125 5.976562 -0.160156 5.0625 -1.046875 L 5.0625 0 L 1.71875 0 L 1.71875 -18.828125 L 5.03125 -18.828125 L 5.03125 -9.703125 C 5.476562 -10.078125 6.039062 -10.378906 6.71875 -10.609375 C 7.40625 -10.835938 8.171875 -10.953125 9.015625 -10.953125 Z M 7.828125 -2.53125 C 8.316406 -2.53125 8.769531 -2.65625 9.1875 -2.90625 C 9.613281 -3.164062 9.953125 -3.519531 10.203125 -3.96875 C 10.460938 -4.425781 10.59375 -4.925781 10.59375 -5.46875 C 10.59375 -6.289062 10.320312 -6.972656 9.78125 -7.515625 C 9.238281 -8.054688 8.585938 -8.328125 7.828125 -8.328125 C 7.171875 -8.328125 6.597656 -8.175781 6.109375 -7.875 C 5.617188 -7.570312 5.269531 -7.164062 5.0625 -6.65625 L 5.0625 -4.109375 C 5.632812 -3.054688 6.554688 -2.53125 7.828125 -2.53125 Z M 7.828125 -2.53125 "/></g></g></g><g fill="#39b54a" fill-opacity="1"><g transform="translate(265.142041, 211.035246)"><g><path d="M 9.015625 -10.953125 C 9.921875 -10.953125 10.75 -10.734375 11.5 -10.296875 C 12.257812 -9.859375 12.863281 -9.222656 13.3125 -8.390625 C 13.757812 -7.566406 13.984375 -6.582031 13.984375 -5.4375 C 13.984375 -4.289062 13.734375 -3.285156 13.234375 -2.421875 C 12.742188 -1.554688 12.082031 -0.890625 11.25 -0.421875 C 10.425781 0.046875 9.53125 0.28125 8.5625 0.28125 C 7.144531 0.28125 5.976562 -0.160156 5.0625 -1.046875 L 5.0625 0 L 1.71875 0 L 1.71875 -18.828125 L 5.03125 -18.828125 L 5.03125 -9.703125 C 5.476562 -10.078125 6.039062 -10.378906 6.71875 -10.609375 C 7.40625 -10.835938 8.171875 -10.953125 9.015625 -10.953125 Z M 7.828125 -2.53125 C 8.316406 -2.53125 8.769531 -2.65625 9.1875 -2.90625 C 9.613281 -3.164062 9.953125 -3.519531 10.203125 -3.96875 C 10.460938 -4.425781 10.59375 -4.925781 10.59375 -5.46875 C 10.59375 -6.289062 10.320312 -6.972656 9.78125 -7.515625 C 9.238281 -8.054688 8.585938 -8.328125 7.828125 -8.328125 C 7.171875 -8.328125 6.597656 -8.175781 6.109375 -7.875 C 5.617188 -7.570312 5.269531 -7.164062 5.0625 -6.65625 L 5.0625 -4.109375 C 5.632812 -3.054688 6.554688 -2.53125 7.828125 -2.53125 Z M 7.828125 -2.53125 "/></g></g></g><g fill="#39b54a" fill-opacity="1"><g transform="translate(280.02542, 211.035246)"><g><path d="M 5.0625 -10.421875 L 5.0625 0 L 1.71875 0 L 1.71875 -10.421875 Z M 1.65625 -14.125 C 1.65625 -14.59375 1.835938 -14.988281 2.203125 -15.3125 C 2.578125 -15.644531 3.003906 -15.8125 3.484375 -15.8125 C 3.953125 -15.8125 4.367188 -15.644531 4.734375 -15.3125 C 5.097656 -14.988281 5.28125 -14.59375 5.28125 -14.125 C 5.28125 -13.644531 5.097656 -13.242188 4.734375 -12.921875 C 4.367188 -12.609375 3.953125 -12.453125 3.484375 -12.453125 C 3.003906 -12.453125 2.578125 -12.609375 2.203125 -12.921875 C 1.835938 -13.242188 1.65625 -13.644531 1.65625 -14.125 Z M 1.65625 -14.125 "/></g></g></g><g fill="#39b54a" fill-opacity="1"><g transform="translate(286.799268, 211.035246)"><g><path d="M 6.03125 -15 L 6.03125 -10.46875 L 8.5625 -10.46875 L 8.5625 -7.875 L 6.03125 -7.875 L 6.03125 0 L 2.703125 0 L 2.703125 -7.875 L 1.078125 -7.875 L 1.078125 -10.46875 L 2.703125 -10.46875 L 2.703125 -15 Z M 6.03125 -15 "/></g></g></g><g fill="#39b54a" fill-opacity="1"><g transform="translate(296.196777, 211.035246)"><g/></g></g><g fill="#39b54a" fill-opacity="1"><g transform="translate(303.948531, 211.035246)"><g><path d="M 10.953125 -3.4375 L 5.125 -3.4375 L 3.703125 0 L 0.28125 0 L 8.203125 -18.25 L 8.40625 -18.25 L 16.3125 0 L 12.3125 0 Z M 9.8125 -6.34375 L 8.109375 -10.625 L 6.34375 -6.34375 Z M 9.8125 -6.34375 "/></g></g></g><g fill="#39b54a" fill-opacity="1"><g transform="translate(320.549228, 211.035246)"><g><path d="M 13.390625 -10.421875 L 13.390625 0 C 13.390625 0.988281 13.101562 1.882812 12.53125 2.6875 C 11.96875 3.488281 11.203125 4.113281 10.234375 4.5625 C 9.273438 5.019531 8.234375 5.25 7.109375 5.25 C 6.253906 5.25 5.503906 5.144531 4.859375 4.9375 C 4.210938 4.726562 3.691406 4.492188 3.296875 4.234375 C 2.910156 3.984375 2.445312 3.640625 1.90625 3.203125 L 3.859375 0.90625 C 4.335938 1.351562 4.8125 1.703125 5.28125 1.953125 C 5.75 2.210938 6.34375 2.34375 7.0625 2.34375 C 7.90625 2.34375 8.613281 2.128906 9.1875 1.703125 C 9.757812 1.285156 10.046875 0.703125 10.046875 -0.046875 L 10.046875 -1.53125 C 9.722656 -0.988281 9.234375 -0.550781 8.578125 -0.21875 C 7.921875 0.113281 7.113281 0.28125 6.15625 0.28125 C 5.21875 0.28125 4.347656 0.0390625 3.546875 -0.4375 C 2.742188 -0.925781 2.101562 -1.59375 1.625 -2.4375 C 1.144531 -3.289062 0.90625 -4.234375 0.90625 -5.265625 C 0.90625 -6.316406 1.15625 -7.28125 1.65625 -8.15625 C 2.15625 -9.03125 2.816406 -9.710938 3.640625 -10.203125 C 4.460938 -10.703125 5.328125 -10.953125 6.234375 -10.953125 C 7.085938 -10.953125 7.847656 -10.828125 8.515625 -10.578125 C 9.179688 -10.335938 9.691406 -10.015625 10.046875 -9.609375 L 10.3125 -10.421875 Z M 7.15625 -2.4375 C 8.488281 -2.4375 9.453125 -2.960938 10.046875 -4.015625 L 10.046875 -6.5625 C 9.816406 -7.070312 9.441406 -7.476562 8.921875 -7.78125 C 8.410156 -8.082031 7.820312 -8.234375 7.15625 -8.234375 C 6.34375 -8.234375 5.65625 -7.960938 5.09375 -7.421875 C 4.539062 -6.878906 4.265625 -6.195312 4.265625 -5.375 C 4.265625 -4.539062 4.539062 -3.84375 5.09375 -3.28125 C 5.65625 -2.71875 6.34375 -2.4375 7.15625 -2.4375 Z M 7.15625 -2.4375 "/></g></g></g><g fill="#39b54a" fill-opacity="1"><g transform="translate(335.647271, 211.035246)"><g><path d="M 4.984375 -8.046875 C 5.273438 -8.597656 5.671875 -9.097656 6.171875 -9.546875 C 6.671875 -9.992188 7.179688 -10.335938 7.703125 -10.578125 C 8.234375 -10.828125 8.648438 -10.953125 8.953125 -10.953125 L 8.78125 -7.609375 C 8.6875 -7.628906 8.550781 -7.640625 8.375 -7.640625 C 7.707031 -7.640625 7.117188 -7.460938 6.609375 -7.109375 C 6.097656 -6.753906 5.707031 -6.300781 5.4375 -5.75 C 5.164062 -5.207031 5.03125 -4.648438 5.03125 -4.078125 L 5.03125 0 L 1.71875 0 L 1.71875 -10.421875 L 4.71875 -10.421875 Z M 4.984375 -8.046875 "/></g></g></g><g fill="#39b54a" fill-opacity="1"><g transform="translate(345.426415, 211.035246)"><g><path d="M 0.90625 -5.34375 C 0.90625 -6.40625 1.15625 -7.359375 1.65625 -8.203125 C 2.15625 -9.046875 2.863281 -9.707031 3.78125 -10.1875 C 4.695312 -10.675781 5.734375 -10.921875 6.890625 -10.921875 C 8.054688 -10.921875 9.078125 -10.675781 9.953125 -10.1875 C 10.835938 -9.707031 11.519531 -9.046875 12 -8.203125 C 12.476562 -7.359375 12.71875 -6.40625 12.71875 -5.34375 C 12.71875 -4.28125 12.476562 -3.316406 12 -2.453125 C 11.519531 -1.597656 10.835938 -0.925781 9.953125 -0.4375 C 9.078125 0.0390625 8.039062 0.28125 6.84375 0.28125 C 5.6875 0.28125 4.65625 0.0546875 3.75 -0.390625 C 2.851562 -0.847656 2.15625 -1.5 1.65625 -2.34375 C 1.15625 -3.1875 0.90625 -4.1875 0.90625 -5.34375 Z M 4.265625 -5.328125 C 4.265625 -4.492188 4.503906 -3.800781 4.984375 -3.25 C 5.460938 -2.707031 6.066406 -2.4375 6.796875 -2.4375 C 7.554688 -2.4375 8.171875 -2.707031 8.640625 -3.25 C 9.117188 -3.789062 9.359375 -4.484375 9.359375 -5.328125 C 9.359375 -6.160156 9.117188 -6.847656 8.640625 -7.390625 C 8.171875 -7.929688 7.554688 -8.203125 6.796875 -8.203125 C 6.066406 -8.203125 5.460938 -7.925781 4.984375 -7.375 C 4.503906 -6.832031 4.265625 -6.148438 4.265625 -5.328125 Z M 4.265625 -5.328125 "/></g></g></g></svg>